<svg xmlns="http://www.w3.org/2000/svg" width="1000" height="152" viewBox="0 0 1000 152">
<defs>
    <style>
      .cls-1 {
        fill: #000000;
      }

      .cls-1, .cls-2 {
        fill-rule: evenodd;
      }

      .cls-2 {
        fill: #ffb02e;
      }
    </style>
  </defs>
  <path class="cls-1" d="M428.233,81.483c-21.231,0-31.339,13.085-31.339,27.763,0,15.269,9.819,27.768,31.339,27.768,9.391,0,31.054-4.362,31.054-27.768C459.287,93.987,449.6,81.483,428.233,81.483Zm-0.146,43.755c-12.271,0-17.474-7.123-17.474-15.843,0-9.595,5.924-15.994,17.474-15.994,13,0,17.472,6.4,17.472,15.994C445.559,120.878,437.046,125.238,428.087,125.238ZM679.963,82.792H620.755V94.567h52.424Zm-339.974,0H280.78V94.567H333.2ZM280.78,136.284h28.737l6.645-11.769H280.78v11.769Zm0-32.7V115.35h40.578l6.792-11.769H280.78Zm74.809-20.79-30.473,53.492h15.017l20.074-35.319,20.221,35.319h15.739L365.7,82.792h-10.11ZM264,124.515l-30.472-53.5h-10.4l-30.472,53.5H185v27.47h12.13v-15.7h62.39v15.7h12.135v-27.47H264Zm-56.18,0,20.071-35.326,20.227,35.326h-40.3Zm642.556-20.934H822.5V82.792H809.792v53.492H822.5V115.35h27.874v20.934h12.714V82.792H850.374v20.79Zm-335.5,1.148c3.364-1.454,6.226-3.755,6.226-9.582,0-11.053-9.233-12.356-15.743-12.356H470.98v53.492h34.96c16.021,0,19.348-8.865,19.348-17.008C525.288,110.11,520.119,106.315,514.869,104.729Zm-31.321-10.6h20.358c3.037,0,4.342,1.6,4.342,4.651,0,3.2-2.027,4.8-4.342,4.8H483.548V94.128ZM505.94,124.95H483.548V113.462H505.94c3.6,0,6.2.874,6.2,5.672C512.142,122.913,510.563,124.95,505.94,124.95Zm248.1-7.7V82.792H741.326v53.492h10.7l30.615-34.74v34.74h12.71V82.792H784.666ZM988.738,82.792l-30.045,34.741V82.792H945.984v53.492h10.687l30.622-35.028v35.028H1000V82.792H988.738Zm-98.506,34.741V82.792H877.525v53.492H888.21l30.624-35.028v35.028h12.707V82.792H920.278ZM695.571,82.792L665.09,136.284h15.022l20.078-35.319,20.216,35.319h15.749L705.679,82.792H695.571ZM593.745,136.284h12.566V82.792H593.745v53.492Zm-23.979-34.3H550.42V82.792H537.707v53.492h31.924c8.658,0,17.613-4.793,17.613-17.439C587.244,102.268,575.69,101.979,569.766,101.979Zm-0.723,22.971H550.42V113.027h18.623c2.169,0,5.493.586,5.493,5.963C574.536,123.929,571.794,124.95,569.043,124.95Zm51.712-21.369V115.35h40.581l6.786-11.769H620.755Zm0,32.7H649.5l6.647-11.769H620.755v11.769Z"/>
  <path class="cls-2" d="M17.245,106.607l67.964,13.072,5.271-9.14L30.07,84.385ZM48.7,52.114l52.852,39.262,5.276-9.139L61.51,29.908ZM32.924,79.439L93.337,105.6,98.693,96.3,45.832,57.073ZM78.776,0L64.516,24.709l45.313,52.317,6.7-11.615ZM0,136.482H75.51l6.7-11.605-67.96-13.066ZM119.808,105.9l17.65,30.584h20.088l-37.738-65.4-37.749,65.4h20.095Z"/>
</svg>