<svg xmlns="http://www.w3.org/2000/svg" xmlns:xlink="http://www.w3.org/1999/xlink" width="125" height="28" viewBox="0 0 125 28">
	<defs>
		<path id="j8bza" d="M127.28 25.73a3.23 3.23 0 0 1 3.37 3.31c0 1.68-1.14 3.37-3.34 3.37-2.18 0-3.33-1.7-3.33-3.37 0-2.27 1.7-3.3 3.3-3.3zm0 11.14c5.19 0 8.81-3.17 8.81-7.69a7.1 7.1 0 0 0-2.38-5.5 8.22 8.22 0 0 0-5.48-1.98c-2.46 0-4.41.77-5.7 2.24.44-3.1 2.19-3.6 4.56-3.89l4.78-.62c2.81-.33 3.63-1.1 4.27-3.7a.51.51 0 0 0-.38-.6L132.32 14l-.13-.01c-.2 0-.4.13-.48.33-.23.58-.77.8-2.46 1l-3.32.39c-6.96.82-7.53 5.8-7.53 11.75 0 3.6.77 5.65 2.72 7.3a9.37 9.37 0 0 0 6.16 2.1z"/>
		<path id="j8bzb" d="M109.66 25.1c1.52 0 2.52.73 2.7 2 .01.03 0 .03-.02.04h-5.71c-.04 0-.06.01-.07 0-.02-.01-.02-.01-.02-.03.34-1.18 1.62-2.02 3.12-2.02zm.12 11.77c2.97 0 5.36-.95 6.87-2.76a.63.63 0 0 0 .15-.52.62.62 0 0 0-.32-.46l-2.87-1.66a.69.69 0 0 0-.83.13 3.95 3.95 0 0 1-2.97 1.15c-1.55 0-2.93-.82-3.3-1.97 0-.05 0-.06.02-.08l.07-.01h10.31c.37 0 .66-.28.67-.64.02-.25.02-.52.02-.78 0-4.83-3.15-7.94-8-7.94-2.36 0-4.51.75-6.07 2.12a7.37 7.37 0 0 0-2.49 5.7c0 2.35.9 4.32 2.6 5.72 1.56 1.29 3.75 2 6.14 2z"/>
		<path id="j8bzc" d="M90.9 25.15h1.64c.84 0 1.86.18 1.86 1.1 0 1.09-1.25 1.17-1.64 1.17H90.9c-.2 0-.37-.11-.37-.28v-1.65c0-.18.2-.34.37-.34zm1.83 5.25c.78 0 2.11.16 2.11 1.27 0 1.2-1.57 1.3-2.05 1.3H90.9c-.2 0-.37-.12-.37-.3v-1.94c0-.17.2-.33.37-.33zm1.54 5.97c3.83 0 6.2-1.63 6.2-4.3 0-1.58-.97-2.83-2.54-3.37a3.24 3.24 0 0 0 1.86-2.95c0-2.58-2.11-4.01-5.93-4.01h-7.89c-.5 0-.96.44-.96.92v12.87c0 .48.47.84.96.84z"/>
		<path id="j8bzd" d="M78.6 30.26v.23c0 1.64-1.06 2.58-2.9 2.58-.3 0-1.9-.07-1.9-1.16 0-1.12 1.4-1.65 4.41-1.65zm-4.16 6.5c1.69 0 3.14-.56 4.18-1.43v.58c0 .29.19.47.48.47h4.15c.29 0 .47-.18.47-.47v-6.86c0-5.4-2.17-7.71-7.32-7.71-2.56 0-5.02.82-6.8 2.27a.49.49 0 0 0-.19.37c-.01.14.05.29.15.39l2.23 2.18a.52.52 0 0 0 .7.04 5.8 5.8 0 0 1 3.45-1.24c2.15 0 2.46 1.13 2.47 1.69-2.8.01-4.92.3-6.5.9-2.22.81-3.34 2.2-3.34 4.12 0 3.24 2.96 4.7 5.87 4.7z"/>
		<path id="j8bze" d="M59.16 25.74c2.27 0 3.3 1.72 3.3 3.3 0 1.63-1.03 3.37-3.3 3.37a3.34 3.34 0 1 1 0-6.67zm-3.74 15.75c.29 0 .46-.23.46-.51v-5.73a6.88 6.88 0 0 0 4.46 1.57c4.98 0 7.62-3.91 7.62-7.77a7.8 7.8 0 0 0-2.03-5.36 7.49 7.49 0 0 0-5.52-2.3 6.8 6.8 0 0 0-4.67 1.76v-.85c0-.29-.28-.55-.57-.55h-4.34c-.3 0-.48.26-.48.55v18.68c0 .28.19.5.48.5z"/>
		<path id="j8bzf" d="M43.8 30.26v.23c0 1.64-1.03 2.58-2.87 2.58-.32 0-1.88-.07-1.88-1.16 0-1.12 1.4-1.65 4.42-1.65zm-4.14 6.5c1.7 0 3.27-.56 4.15-1.43v.58c0 .29.27.47.56.47h4.15c.29 0 .54-.18.54-.47v-6.86c0-5.4-2.22-7.71-7.36-7.71-2.57 0-5.06.82-6.84 2.27a.49.49 0 0 0-.2.37c0 .14.05.29.15.39l2.23 2.18a.52.52 0 0 0 .7.04 5.8 5.8 0 0 1 3.45-1.24c2.16 0 2.46 1.13 2.48 1.69-2.78.01-4.92.3-6.51.9-2.23.81-3.35 2.2-3.35 4.12 0 3.24 2.94 4.7 5.85 4.7z"/>
		<path id="j8bzg" d="M27.62 36.37c-.3 0-.57-.18-.57-.47V25.86h-4.37V35.9c0 .29-.22.47-.51.47h-4.62c-.29 0-.55-.18-.55-.47V22.3c0-.29.26-.56.55-.56h14.68c.3 0 .5.27.5.55V35.9c0 .29-.2.47-.5.47z"/>
		<path id="j8bzh" d="M139.02 36.7c-1.62 0-2.94-1.25-2.94-2.77 0-1.53 1.32-2.77 2.94-2.77 1.63 0 2.95 1.24 2.95 2.77 0 1.52-1.32 2.77-2.95 2.77"/>
	</defs>
	<g>
		<g transform="translate(-17 -14)">
			<g>
				<use fill="#000" xlink:href="#j8bza"/>
			</g>
			<g>
				<use fill="#000" xlink:href="#j8bzb"/>
			</g>
			<g>
				<use fill="#000" xlink:href="#j8bzc"/>
			</g>
			<g>
				<use fill="#000" xlink:href="#j8bzd"/>
			</g>
			<g>
				<use fill="#000" xlink:href="#j8bze"/>
			</g>
			<g>
				<use fill="#000" xlink:href="#j8bzf"/>
			</g>
			<g>
				<use fill="#000" xlink:href="#j8bzg"/>
			</g>
			<g>
				<use fill="#000" xlink:href="#j8bzh"/>
			</g>
		</g>
	</g>
</svg>