<?xml version="1.0" encoding="utf-8"?>
<svg version="1.1" xmlns="http://www.w3.org/2000/svg" xmlns:xlink="http://www.w3.org/1999/xlink" x="0px" y="0px" viewBox="0 0 242 58" style="enable-background:new 0 0 242 58;" xml:space="preserve">
	<style type="text/css">
		.st0{fill:#00A10B;}
	</style>
	<g>
		<g>
			<g>
				<defs>
					<path id="SVGID_1_" d="M47.7,28.7c0,13-10.6,23.6-23.6,23.6c-13,0-23.6-10.6-23.6-23.6c0-0.5,0-1.1,0.1-1.6l14.3,8.2L45.1,18
						C46.7,21.2,47.7,24.9,47.7,28.7z M14.9,29.4L1.6,21.8c-0.3,0.8-0.5,1.7-0.6,2.6l13.9,8l28.9-16.6c-0.5-0.7-1-1.4-1.5-2.1
						L14.9,29.4z M40.5,11.8c-0.7-0.6-1.3-1.2-2.1-1.8L14.9,23.5L3.6,17c-0.4,0.7-0.8,1.5-1.2,2.3l12.4,7.1L40.5,11.8z M14.9,20.5
						L36,8.4c-0.9-0.5-1.8-1-2.8-1.4L14.9,17.6l-8.2-4.7c-0.6,0.6-1.1,1.3-1.6,2L14.9,20.5z"/>
				</defs>
				<use xlink:href="#SVGID_1_"  style="overflow:visible;fill:#00A10B;"/>
				<clipPath id="SVGID_2_">
					<use xlink:href="#SVGID_1_"  style="overflow:visible;"/>
				</clipPath>
			</g>
			<path class="st0" d="M66.5,26.6c-2.7-1-5.8-2.5-5.8-6.9c0-4.1,2.8-7.1,9.4-7.1c3.8,0,5.9,0.9,6.6,1.2c-0.1,1.6-0.1,3.1,0,4.8
				h-1.4L75,17.4c-0.6-1.8-1.7-3.1-4.5-3.1c-3.7,0-4.8,1.7-4.8,3.8c0,2.2,1.1,3,3.5,4l3.4,1.3c3.6,1.4,5.5,3.4,5.5,7.2
				c0,3.6-2.4,7.6-9.8,7.6c-3.8,0-6.4-0.8-7.1-1.1c0.1-1.6,0.1-3.6,0-5.3h1.5l0.4,1.7c0.5,1.8,1.7,3.1,5,3.1c3.1,0,5-1.5,5-4.3
				c0-2.1-1-3.5-3.1-4.3L66.5,26.6z M89.8,13.1c4.9,0,9.1,0.6,9.1,5.6c0,3.4-2.3,4.9-5,5.4c3.2,0.2,5.8,2.4,5.8,6.1
				c0,6-4.1,7.4-10.2,7.4h-9.3v-0.8c1.2-0.3,1.4-0.6,1.4-2v-19c0-1.3-0.2-1.7-1.4-2v-0.8H89.8z M87,23.4h2.3c2.8,0,4.3-1,4.3-4.3
				c0-3.3-1.4-4.5-4.1-4.5h-1c-1.3,0-1.5,0.4-1.5,1.4V23.4z M87,25V34c0,1.6,0.3,2,2.1,2H90c2.8,0,4.4-1.8,4.4-5.6
				c0-3.7-1.4-5.5-5.2-5.5H87z M110.8,14.7c-1,0-1.2,0.3-1.2,1.1v7.6h3.3c1.4,0,3.5-0.1,4.3-0.7v3.1c-0.8-0.6-3-0.7-4.3-0.7h-3.3
				v9.1c0,1.5,0.6,2,3.8,2h0.7c3.2,0,4-0.2,4.7-3.3l0.2-0.9h1.5c-0.1,1.9-0.1,3.8,0,5.7h-17.6v-0.8c1.2-0.3,1.4-0.6,1.4-2v-19
				c0-1.3-0.2-1.7-1.4-2v-0.8H120c-0.1,1.8-0.1,3.5,0,5.3h-1.3l-0.3-1c-0.8-2.5-1.6-2.8-4.8-2.8H110.8z M144.4,37.6h-6.7
				c-0.4-1.3-2.3-6.2-3-8l-1.3-3.3h-2.9v8.5c0,1.3,0.2,1.7,1.4,2v0.8h-8v-0.8c1.2-0.3,1.4-0.6,1.4-2v-19c0-1.3-0.2-1.7-1.4-2v-0.8
				h9.8c5.2,0,8.9,1.3,8.9,6.4c0,3.6-2.1,5.2-4.3,6.1C138.7,26.5,142.5,34.7,144.4,37.6z M132.8,24.8c3.4,0,4.4-1.7,4.4-5.1
				c0-3.5-1.6-5-3.9-5h-1.2c-1,0-1.5,0.2-1.5,1.3v8.8H132.8z M156.2,13.1c4.9,0,9.1,0.6,9.1,5.6c0,3.4-2.3,4.9-5,5.4
				c3.2,0.2,5.8,2.4,5.8,6.1c0,6-4.1,7.4-10.2,7.4h-9.3v-0.8c1.2-0.3,1.4-0.6,1.4-2v-19c0-1.3-0.2-1.7-1.4-2v-0.8H156.2z
				 M153.4,23.4h2.3c2.8,0,4.3-1,4.3-4.3c0-3.3-1.4-4.5-4.1-4.5h-1c-1.3,0-1.5,0.4-1.5,1.4V23.4z M153.4,25V34c0,1.6,0.3,2,2.1,2
				h0.9c2.8,0,4.4-1.8,4.4-5.6c0-3.7-1.4-5.5-5.2-5.5H153.4z M184.1,37.6c-0.2-1.3-1-3.8-1.6-5.7l-1-3.1h-7.8
				c-0.8,2.4-1.4,4.4-1.7,5.8c-0.3,1.4-0.5,2.4-0.5,3H167c0.6-0.9,1.7-3.1,3.4-7.2l4.5-11.1c1-2.5,1.2-3.3,1.2-4
				c0-0.5-0.1-1.2-1.4-1.4v-0.8h7c0.1,0.7,0.2,1.6,0.9,3.6l5.1,14.7c1,2.9,2.1,5.3,2.6,6.2H184.1z M180.9,27.1l-3.3-9.9l-3.4,9.9
				H180.9z M196.1,17.5v17.3c0,1.3,0.3,1.7,1.7,2v0.8h-5.9v-0.8c1.4-0.3,1.7-0.6,1.7-2v-19c0-1.3-0.4-1.8-1.7-2v-0.8h7.4
				c0.5,0.9,1.5,2.4,3.7,5.6l7.4,10.2v-13c0-1.3-0.4-1.7-1.7-2v-0.8h5.9v0.8c-1.4,0.3-1.7,0.6-1.7,2v21.9h-2.3L196.1,17.5z
				 M219.4,15.9c0-1.3-0.2-1.7-1.4-2v-0.8h8v0.8c-1.2,0.3-1.4,0.6-1.4,2v19c0,1.3,0.2,1.7,1.4,2v0.8h-8v-0.8c1.2-0.3,1.4-0.6,1.4-2
				V15.9z M232.4,26.9c1.7,2.4,5.7,7.8,8.6,10.7h-8.2c-0.6-1.3-1.5-3.4-4-7.3l-3.7-5.6l3.2-4.2c1.9-2.5,4.4-5.8,5.1-7.5h5.7v0
				c-2.3,1.3-6.2,5.2-7.3,6.5l-2.6,2.7L232.4,26.9z"/>
		</g>
		<rect x="61" y="43.7" class="st0" width="180" height="2.4"/>
	</g>
</svg>
