<svg xmlns="http://www.w3.org/2000/svg" viewBox="0 0 153.64 49.67">
	<path d="M32.71 5.72a5.24 5.24 0 0 0-5.22 3.84 7.33 7.33 0 0 0 0 4.33 4.93 4.93 0 0 0 4.17 3.73 4.85 4.85 0 0 0 5.2-2.28 6.78 6.78 0 0 0 .3-6.77 4.73 4.73 0 0 0-4.47-2.86m-.08 17.59a11.87 11.87 0 0 1-8.27-3 11.05 11.05 0 0 1-3.58-8.76A11.31 11.31 0 0 1 23.44 4 11.18 11.18 0 0 1 29.8.31a12.42 12.42 0 0 1 9 1.31 10.6 10.6 0 0 1 5.48 9.2A11.37 11.37 0 0 1 41 20.08a11.65 11.65 0 0 1-8.37 3.23zM110.66 13.75a7.55 7.55 0 0 0-3.37-1.21 4.59 4.59 0 0 0-3.55.74 2.88 2.88 0 0 0-1 3.18 2.71 2.71 0 0 0 2.38 1.8 6.45 6.45 0 0 0 3.17-.49 3.51 3.51 0 0 0 2.35-4m.12-4.19a12.83 12.83 0 0 0 0-1.91 2.62 2.62 0 0 0-1.92-2.06 14.19 14.19 0 0 0-9.93.76l-.83-4.57a14.87 14.87 0 0 1 4.07-1.3 20.71 20.71 0 0 1 8.85.13c3.09.78 5.25 2.57 5.85 5.85A14.59 14.59 0 0 1 117 9v8.29c.11 1.7.26 1.87 2 2.13v3.51a7.52 7.52 0 0 1-5.24-.16 3.06 3.06 0 0 1-1.65-2.33c0-.2-.05-.41-.09-.71-2.11 3-5.13 3.78-8.45 3.59-3.67-.32-6.57-2.79-7.05-5.74-.86-4.79 1.56-8.37 6.39-9.09 3.09-.49 3.93-.27 7.88 1.08zM82.39 13.85l-3.4.21v8.72h-6.37V.71h6.27v8.16A12.51 12.51 0 0 0 83 8.56a4.82 4.82 0 0 0 3.28-3.35c.41-1.46.61-3 .92-4.55H93c.13 4.55-.78 8.56-5.13 11.06.17.32.31.6.46.86 1.79 3 3.58 6 5.36 8.95a10.78 10.78 0 0 1 .54 1.28h-6.7l-5.15-8.95M61.38.68h6.2v22.14h-6.26v-7.1c-1.15.26-2.21.58-3.29.72a9.82 9.82 0 0 1-7.87-1.86A9.32 9.32 0 0 1 47 8.93c-.54-2.71-.21-5.46-.3-8.25h6.47v1c0 1.79 0 3.59.09 5.37A4.07 4.07 0 0 0 57.48 11a6.36 6.36 0 0 0 3.9-1.18zM12.75 22.73H6.53V6.33H0V.7h19.21v5.57h-6.46v16.46zM3 46.31c-.92 0-1.47-.66-1.48-1.84A1.89 1.89 0 0 1 3 43.64a1.21 1.21 0 0 1 1.29 1.27A1.32 1.32 0 0 1 3 46.31m.45-4a2.45 2.45 0 0 0-2 .93 1.73 1.73 0 0 1 .52-1.21 1.86 1.86 0 0 1 .71-.46 4.7 4.7 0 0 1 .93-.27l.52-.11.57-.1.58-.1v-1.38a14.94 14.94 0 0 0-2.33.54 5.64 5.64 0 0 0-1.6.81A3.49 3.49 0 0 0 0 44.06a4.05 4.05 0 0 0 .78 2.6 2.68 2.68 0 0 0 2.22 1 2.79 2.79 0 0 0 2-.79 2.69 2.69 0 0 0 .82-2A2.4 2.4 0 0 0 5.18 43a2.35 2.35 0 0 0-1.74-.64zM10 45.86a1.47 1.47 0 0 1-1.24.56c-.57 0-1-.23-1-.71S8.2 45 8.85 45a2 2 0 0 1 1.14.32zm1.92.42c-.25 0-.38-.14-.38-.42V44a1.91 1.91 0 0 0-.72-1.58 2.91 2.91 0 0 0-1.88-.57 4.26 4.26 0 0 0-2 .44v1.31a3.2 3.2 0 0 1 1.65-.46c1 0 1.45.34 1.45 1v.16a3.36 3.36 0 0 0-1.63-.3 2.53 2.53 0 0 0-1.52.46 1.54 1.54 0 0 0-.64 1.34 1.83 1.83 0 0 0 2 1.83 2.52 2.52 0 0 0 1.88-.75 1.21 1.21 0 0 0 1.24.7 1.32 1.32 0 0 0 .83-.23v-1.14a.65.65 0 0 1-.29.07zM14.55 47.48v-2.15h2.25v2.15h1.54v-5.47H16.8v2.02h-2.25v-2.02H13v5.47h1.55zM21.1 47.48v-2.36l2.16 2.36h1.99l-2.75-3.01 2.38-2.46h-1.9L21.1 44v-1.99h-1.55v5.47h1.55zM30.37 46.18a7.65 7.65 0 0 0 .48-2.88h1.71v2.88zm-.8 2.68v-1.39h3.94v1.39H35v-2.68h-.9V42h-4.6v1.06a6.09 6.09 0 0 1-.66 3.11h-.7v2.68zM39.62 43.3v4.17h1.55V42h-4.73v1.61a7.48 7.48 0 0 1-.18 1.88c-.12.49-.35.7-.71.7a.93.93 0 0 1-.32 0v1.26a1.29 1.29 0 0 0 .58.1A1.84 1.84 0 0 0 37.65 46a7.59 7.59 0 0 0 .25-1.92v-.77zM44.68 44.55c-.52 0-.82-.24-.82-.67s.31-.67.82-.67h1.14v1.34zm-1.05 2.93l1.26-1.81h.93v1.81h1.54V42h-2.93c-1.44 0-2.15.76-2.15 1.78a1.56 1.56 0 0 0 1.08 1.61l-1.47 2.08zM52.93 47.48V43.3h2.18v4.18h1.54v-5.47h-5.27v5.47h1.55zM60.77 43.21a1.39 1.39 0 0 1 1.06.44 1.64 1.64 0 0 1 0 2.18 1.39 1.39 0 0 1-1.06.44 1.54 1.54 0 0 1-1.36-.81V44a1.55 1.55 0 0 1 1.36-.82m.44-1.35a2.12 2.12 0 0 0-1.8.81V42h-1.54v7.66h1.55v-2.85a2.16 2.16 0 0 0 1.8.81 2.34 2.34 0 0 0 1.84-.82 3 3 0 0 0 .73-2 2.94 2.94 0 0 0-.73-2 2.32 2.32 0 0 0-1.85-.94zM65.8 44.18a1.19 1.19 0 0 1 1.2-1.1 1.11 1.11 0 0 1 1.15 1.1zm1.5 3.44a3.39 3.39 0 0 0 2.08-.56v-1.24a3.49 3.49 0 0 1-1.75.48c-1 0-1.67-.39-1.83-1.14h3.92v-.41a3.07 3.07 0 0 0-.71-2 2.35 2.35 0 0 0-1.9-.84 2.7 2.7 0 0 0-2.06.83 2.83 2.83 0 0 0-.79 2 2.7 2.7 0 0 0 .88 2.09 3.1 3.1 0 0 0 2.16.79zM72.35 46.18a7.65 7.65 0 0 0 .48-2.88h1.71v2.88zm-.8 2.68v-1.39h3.95v1.39H77v-2.68h-.9V42h-4.6v1.06a6.09 6.09 0 0 1-.66 3.11h-.7v2.68zM79.26 47.48V43.3h2.18v4.18h1.55v-5.47h-5.27v5.47h1.54zM87.11 43.21a1.39 1.39 0 0 1 1.06.44 1.64 1.64 0 0 1 0 2.18 1.39 1.39 0 0 1-1.06.44 1.54 1.54 0 0 1-1.36-.81V44a1.55 1.55 0 0 1 1.36-.82m.44-1.35a2.12 2.12 0 0 0-1.8.81V42H84.2v7.66h1.55v-2.85a2.16 2.16 0 0 0 1.8.81 2.34 2.34 0 0 0 1.84-.82 3 3 0 0 0 .73-2 2.94 2.94 0 0 0-.73-2 2.32 2.32 0 0 0-1.84-.94zM92.41 47.48l2.48-3.23v3.23h1.52v-5.47h-1.45l-2.47 3.22v-3.22h-1.53v5.47h1.45zM99.17 47.48v-2.15h2.25v2.15h1.54v-5.47h-1.54v2.02h-2.25v-2.02h-1.54v5.47h1.54zM105.62 47.48l2.48-3.23v3.23h1.52v-5.47h-1.44l-2.48 3.22v-3.22h-1.52v5.47h1.44zM112.3 47.48V44.1l1.34 1.7h.62l1.35-1.7v3.38h1.46v-5.47h-1.52l-1.6 2.04-1.59-2.04h-1.52v5.47h1.46zM121.57 45.86a1.47 1.47 0 0 1-1.24.56c-.57 0-1-.23-1-.71s.42-.71 1.07-.71a2 2 0 0 1 1.14.32zm1.92.42c-.25 0-.38-.14-.38-.42V44a1.91 1.91 0 0 0-.72-1.58 2.91 2.91 0 0 0-1.88-.57 4.26 4.26 0 0 0-2 .44v1.31a3.2 3.2 0 0 1 1.65-.46c1 0 1.45.34 1.45 1v.16A3.36 3.36 0 0 0 120 44a2.53 2.53 0 0 0-1.52.46 1.54 1.54 0 0 0-.64 1.34 1.83 1.83 0 0 0 2 1.83 2.52 2.52 0 0 0 1.88-.75 1.21 1.21 0 0 0 1.24.7 1.32 1.32 0 0 0 .83-.23v-1.14a.65.65 0 0 1-.3.07zM127.25 47.48V43.3h1.73v-1.29H124v1.29h1.7v4.18h1.55zM130.77 44.18a1.19 1.19 0 0 1 1.25-1.1 1.11 1.11 0 0 1 1.15 1.1zm1.5 3.44a3.39 3.39 0 0 0 2.08-.56v-1.24a3.49 3.49 0 0 1-1.75.48c-1 0-1.67-.39-1.83-1.14h3.92v-.41a3.07 3.07 0 0 0-.71-2 2.35 2.35 0 0 0-1.9-.84 2.7 2.7 0 0 0-2.06.83 2.83 2.83 0 0 0-.79 2 2.7 2.7 0 0 0 .88 2.09 3.1 3.1 0 0 0 2.16.79zM139.45 43.3v4.17H141V42h-4.72v1.61a7.48 7.48 0 0 1-.18 1.88c-.12.49-.35.7-.71.7a.93.93 0 0 1-.32 0v1.26a1.29 1.29 0 0 0 .58.1 1.84 1.84 0 0 0 1.84-1.55 7.59 7.59 0 0 0 .25-1.92v-.77zM143.39 44.18a1.19 1.19 0 0 1 1.25-1.1 1.11 1.11 0 0 1 1.15 1.1zm1.5 3.44a3.39 3.39 0 0 0 2.08-.56v-1.24a3.49 3.49 0 0 1-1.75.48c-1 0-1.67-.39-1.83-1.14h3.92v-.41a3.07 3.07 0 0 0-.71-2 2.35 2.35 0 0 0-1.9-.84 2.7 2.7 0 0 0-2.06.83 2.83 2.83 0 0 0-.79 2 2.7 2.7 0 0 0 .88 2.09 3.1 3.1 0 0 0 2.16.79zM150.91 41.4a2 2 0 0 0 1.4-.5 1.8 1.8 0 0 0 .57-1.37h-1.17a.81.81 0 0 1-1.62 0h-1.16a1.84 1.84 0 0 0 2 1.87m-1.27 6.07l2.48-3.22v3.22h1.52V42h-1.45l-2.48 3.22V42h-1.52v5.47z"/>
</svg>